{
	"asset":{
		"generator":"Khronos glTF Blender I/O v4.0.4",
		"version":"2.0"
	},
	"extensionsUsed":[
		"KHR_materials_clearcoat",
		"KHR_materials_specular",
		"KHR_materials_ior"
	],
	"scene":0,
	"scenes":[
		{
			"name":"Scene",
			"nodes":[
				0,
				1,
				2,
				3,
				4,
				5
			]
		}
	],
	"nodes":[
		{
			"mesh":0,
			"name":"Cube.004",
			"scale":[
				0.7713795304298401,
				0.22039414942264557,
				0.33059123158454895
			],
			"translation":[
				0.011613577604293823,
				0.210877925157547,
				-0.003678593784570694
			]
		},
		{
			"mesh":1,
			"name":"Cylinder.001",
			"rotation":[
				0.7071068286895752,
				0,
				0,
				0.7071068286895752
			],
			"scale":[
				0.0857529267668724,
				0.018341366201639175,
				0.0857529267668724
			],
			"translation":[
				-0.5840160846710205,
				0.012523159384727478,
				0.27433839440345764
			]
		},
		{
			"mesh":2,
			"name":"Cylinder.002",
			"rotation":[
				0.7071068286895752,
				0,
				0,
				0.7071068286895752
			],
			"scale":[
				0.0857529267668724,
				0.018341366201639175,
				0.0857529267668724
			],
			"translation":[
				0.2529248297214508,
				0.012523159384727478,
				0.27433839440345764
			]
		},
		{
			"mesh":3,
			"name":"Cylinder.003",
			"rotation":[
				0.7071068286895752,
				0,
				0,
				0.7071068286895752
			],
			"scale":[
				0.0857529267668724,
				0.018341366201639175,
				0.0857529267668724
			],
			"translation":[
				-0.5840160846710205,
				0.012523159384727478,
				-0.28242701292037964
			]
		},
		{
			"mesh":4,
			"name":"Cylinder.004",
			"rotation":[
				0.7071068286895752,
				0,
				0,
				0.7071068286895752
			],
			"scale":[
				0.0857529267668724,
				0.018341366201639175,
				0.0857529267668724
			],
			"translation":[
				0.2529248297214508,
				0.012523159384727478,
				-0.28242701292037964
			]
		},
		{
			"mesh":5,
			"name":"Cylinder",
			"scale":[
				0.014341449365019798,
				0.12538845837116241,
				0.014341449365019798
			],
			"translation":[
				-0.03277668356895447,
				0.29896751046180725,
				0.23630625009536743
			]
		}
	],
	"materials":[
		{
			"doubleSided":true,
			"extensions":{
				"KHR_materials_clearcoat":{
					"clearcoatFactor":0.042424242943525314,
					"clearcoatRoughnessFactor":0.029999999329447746
				},
				"KHR_materials_specular":{
					"specularColorTexture":{
						"index":0
					},
					"specularColorFactor":[
						1.5902045644798786,
						1.5902045644798786,
						1.5902045644798786
					]
				},
				"KHR_materials_ior":{
					"ior":1.4500000476837158
				}
			},
			"name":"truckbase",
			"pbrMetallicRoughness":{
				"baseColorTexture":{
					"index":1
				},
				"metallicFactor":0,
				"roughnessFactor":0.7848484516143799
			}
		},
		{
			"doubleSided":true,
			"name":"Material.005",
			"pbrMetallicRoughness":{
				"baseColorFactor":[
					0.047424789518117905,
					0.07388320565223694,
					0.08001189678907394,
					1
				],
				"metallicFactor":0,
				"roughnessFactor":0.8272727131843567
			}
		},
		{
			"doubleSided":true,
			"name":"Material.004",
			"pbrMetallicRoughness":{
				"baseColorFactor":[
					0.37499672174453735,
					0.467202365398407,
					0.3969440162181854,
					1
				],
				"metallicFactor":0.5333333611488342,
				"roughnessFactor":0.5
			}
		}
	],
	"meshes":[
		{
			"name":"Cube.004",
			"primitives":[
				{
					"attributes":{
						"POSITION":0,
						"NORMAL":1,
						"TEXCOORD_0":2
					},
					"indices":3,
					"material":0
				}
			]
		},
		{
			"name":"Cylinder.001",
			"primitives":[
				{
					"attributes":{
						"POSITION":4,
						"NORMAL":5,
						"TEXCOORD_0":6
					},
					"indices":7,
					"material":1
				}
			]
		},
		{
			"name":"Cylinder.002",
			"primitives":[
				{
					"attributes":{
						"POSITION":8,
						"NORMAL":9,
						"TEXCOORD_0":10
					},
					"indices":7,
					"material":1
				}
			]
		},
		{
			"name":"Cylinder.003",
			"primitives":[
				{
					"attributes":{
						"POSITION":11,
						"NORMAL":12,
						"TEXCOORD_0":13
					},
					"indices":7,
					"material":1
				}
			]
		},
		{
			"name":"Cylinder.004",
			"primitives":[
				{
					"attributes":{
						"POSITION":14,
						"NORMAL":15,
						"TEXCOORD_0":16
					},
					"indices":7,
					"material":1
				}
			]
		},
		{
			"name":"Cylinder.005",
			"primitives":[
				{
					"attributes":{
						"POSITION":17,
						"NORMAL":18,
						"TEXCOORD_0":19
					},
					"indices":20,
					"material":2
				}
			]
		}
	],
	"textures":[
		{
			"sampler":0,
			"source":0
		},
		{
			"sampler":0,
			"source":1
		}
	],
	"images":[
		{
			"bufferView":4,
			"mimeType":"image/png",
			"name":"Image"
		},
		{
			"bufferView":5,
			"mimeType":"image/png",
			"name":"truckbase Base Color"
		}
	],
	"accessors":[
		{
			"bufferView":0,
			"componentType":5126,
			"count":292,
			"max":[
				0.6829326152801514,
				1.137077808380127,
				0.8560596108436584
			],
			"min":[
				-1,
				-1,
				-0.8560596108436584
			],
			"type":"VEC3"
		},
		{
			"bufferView":1,
			"componentType":5126,
			"count":292,
			"type":"VEC3"
		},
		{
			"bufferView":2,
			"componentType":5126,
			"count":292,
			"type":"VEC2"
		},
		{
			"bufferView":3,
			"componentType":5123,
			"count":696,
			"type":"SCALAR"
		},
		{
			"bufferView":6,
			"componentType":5126,
			"count":192,
			"max":[
				1,
				1,
				1
			],
			"min":[
				-1,
				-1,
				-1
			],
			"type":"VEC3"
		},
		{
			"bufferView":7,
			"componentType":5126,
			"count":192,
			"type":"VEC3"
		},
		{
			"bufferView":8,
			"componentType":5126,
			"count":192,
			"type":"VEC2"
		},
		{
			"bufferView":9,
			"componentType":5123,
			"count":372,
			"type":"SCALAR"
		},
		{
			"bufferView":10,
			"componentType":5126,
			"count":192,
			"max":[
				1,
				1,
				1
			],
			"min":[
				-1,
				-1,
				-1
			],
			"type":"VEC3"
		},
		{
			"bufferView":11,
			"componentType":5126,
			"count":192,
			"type":"VEC3"
		},
		{
			"bufferView":12,
			"componentType":5126,
			"count":192,
			"type":"VEC2"
		},
		{
			"bufferView":13,
			"componentType":5126,
			"count":192,
			"max":[
				1,
				1,
				1
			],
			"min":[
				-1,
				-1,
				-1
			],
			"type":"VEC3"
		},
		{
			"bufferView":14,
			"componentType":5126,
			"count":192,
			"type":"VEC3"
		},
		{
			"bufferView":15,
			"componentType":5126,
			"count":192,
			"type":"VEC2"
		},
		{
			"bufferView":16,
			"componentType":5126,
			"count":192,
			"max":[
				1,
				1,
				1
			],
			"min":[
				-1,
				-1,
				-1
			],
			"type":"VEC3"
		},
		{
			"bufferView":17,
			"componentType":5126,
			"count":192,
			"type":"VEC3"
		},
		{
			"bufferView":18,
			"componentType":5126,
			"count":192,
			"type":"VEC2"
		},
		{
			"bufferView":19,
			"componentType":5126,
			"count":704,
			"max":[
				1,
				1.5396682024002075,
				1
			],
			"min":[
				-2.6836886405944824,
				-1,
				-1
			],
			"type":"VEC3"
		},
		{
			"bufferView":20,
			"componentType":5126,
			"count":704,
			"type":"VEC3"
		},
		{
			"bufferView":21,
			"componentType":5126,
			"count":704,
			"type":"VEC2"
		},
		{
			"bufferView":22,
			"componentType":5123,
			"count":1140,
			"type":"SCALAR"
		}
	],
	"bufferViews":[
		{
			"buffer":0,
			"byteLength":3504,
			"byteOffset":0,
			"target":34962
		},
		{
			"buffer":0,
			"byteLength":3504,
			"byteOffset":3504,
			"target":34962
		},
		{
			"buffer":0,
			"byteLength":2336,
			"byteOffset":7008,
			"target":34962
		},
		{
			"buffer":0,
			"byteLength":1392,
			"byteOffset":9344,
			"target":34963
		},
		{
			"buffer":0,
			"byteLength":25051,
			"byteOffset":10736
		},
		{
			"buffer":0,
			"byteLength":128234,
			"byteOffset":35788
		},
		{
			"buffer":0,
			"byteLength":2304,
			"byteOffset":164024,
			"target":34962
		},
		{
			"buffer":0,
			"byteLength":2304,
			"byteOffset":166328,
			"target":34962
		},
		{
			"buffer":0,
			"byteLength":1536,
			"byteOffset":168632,
			"target":34962
		},
		{
			"buffer":0,
			"byteLength":744,
			"byteOffset":170168,
			"target":34963
		},
		{
			"buffer":0,
			"byteLength":2304,
			"byteOffset":170912,
			"target":34962
		},
		{
			"buffer":0,
			"byteLength":2304,
			"byteOffset":173216,
			"target":34962
		},
		{
			"buffer":0,
			"byteLength":1536,
			"byteOffset":175520,
			"target":34962
		},
		{
			"buffer":0,
			"byteLength":2304,
			"byteOffset":177056,
			"target":34962
		},
		{
			"buffer":0,
			"byteLength":2304,
			"byteOffset":179360,
			"target":34962
		},
		{
			"buffer":0,
			"byteLength":1536,
			"byteOffset":181664,
			"target":34962
		},
		{
			"buffer":0,
			"byteLength":2304,
			"byteOffset":183200,
			"target":34962
		},
		{
			"buffer":0,
			"byteLength":2304,
			"byteOffset":185504,
			"target":34962
		},
		{
			"buffer":0,
			"byteLength":1536,
			"byteOffset":187808,
			"target":34962
		},
		{
			"buffer":0,
			"byteLength":8448,
			"byteOffset":189344,
			"target":34962
		},
		{
			"buffer":0,
			"byteLength":8448,
			"byteOffset":197792,
			"target":34962
		},
		{
			"buffer":0,
			"byteLength":5632,
			"byteOffset":206240,
			"target":34962
		},
		{
			"buffer":0,
			"byteLength":2280,
			"byteOffset":211872,
			"target":34963
		}
	],
	"samplers":[
		{
			"magFilter":9729,
			"minFilter":9987
		}
	],
	"buffers":[
		{
			"byteLength":214152,
			"uri":"data:application/octet-stream;base64,"
		}
	]
}
