{
	"asset":{
		"generator":"Khronos glTF Blender I/O v4.0.4",
		"version":"2.0"
	},
	"extensionsUsed":[
		"KHR_materials_specular",
		"KHR_materials_ior"
	],
	"scene":0,
	"scenes":[
		{
			"name":"Scene",
			"nodes":[
				0
			]
		}
	],
	"nodes":[
		{
			"mesh":0,
			"name":"Cylinder.001",
			"rotation":[
				0.5,
				0.5,
				-0.5,
				0.5
			],
			"scale":[
				0.09361536055803299,
				0.04480661824345589,
				0.09361536055803299
			],
			"translation":[
				0.2209595888853073,
				-0.33517634868621826,
				0.4112846255302429
			]
		}
	],
	"materials":[
		{
			"doubleSided":true,
			"extensions":{
				"KHR_materials_specular":{
					"specularColorTexture":{
						"index":0
					}
				},
				"KHR_materials_ior":{
					"ior":1.4500000476837158
				}
			},
			"name":"Material",
			"pbrMetallicRoughness":{
				"baseColorTexture":{
					"index":1
				},
				"metallicFactor":0,
				"roughnessFactor":0.5
			}
		}
	],
	"meshes":[
		{
			"name":"Cylinder.001",
			"primitives":[
				{
					"attributes":{
						"POSITION":0,
						"NORMAL":1,
						"TEXCOORD_0":2
					},
					"indices":3,
					"material":0
				}
			]
		}
	],
	"textures":[
		{
			"sampler":0,
			"source":0
		},
		{
			"sampler":0,
			"source":1
		}
	],
	"images":[
		{
			"bufferView":4,
			"mimeType":"image/png",
			"name":"Image"
		},
		{
			"bufferView":5,
			"mimeType":"image/png",
			"name":"mbc"
		}
	],
	"accessors":[
		{
			"bufferView":0,
			"componentType":5126,
			"count":4296,
			"max":[
				13.390344619750977,
				3.7424631118774414,
				1.0000005960464478
			],
			"min":[
				-3.219534397125244,
				-13.60527229309082,
				-6.740913391113281
			],
			"type":"VEC3"
		},
		{
			"bufferView":1,
			"componentType":5126,
			"count":4296,
			"type":"VEC3"
		},
		{
			"bufferView":2,
			"componentType":5126,
			"count":4296,
			"type":"VEC2"
		},
		{
			"bufferView":3,
			"componentType":5123,
			"count":8364,
			"type":"SCALAR"
		}
	],
	"bufferViews":[
		{
			"buffer":0,
			"byteLength":51552,
			"byteOffset":0,
			"target":34962
		},
		{
			"buffer":0,
			"byteLength":51552,
			"byteOffset":51552,
			"target":34962
		},
		{
			"buffer":0,
			"byteLength":34368,
			"byteOffset":103104,
			"target":34962
		},
		{
			"buffer":0,
			"byteLength":16728,
			"byteOffset":137472,
			"target":34963
		},
		{
			"buffer":0,
			"byteLength":17202,
			"byteOffset":154200
		},
		{
			"buffer":0,
			"byteLength":178589,
			"byteOffset":171404
		}
	],
	"samplers":[
		{
			"magFilter":9729,
			"minFilter":9987
		}
	],
	"buffers":[
		{
			"byteLength":349996,
			"uri":"data:application/octet-stream;base64,"
		}
	]
}
